<svg width="185" height="32" viewBox="0 0 185 32" fill="none" xmlns="http://www.w3.org/2000/svg">
<path d="M19.8242 9.17796L16.3952 23.1033H11.9471L10.6136 17.036C10.5882 16.9217 10.5469 16.728 10.4898 16.455C10.439 16.1819 10.3787 15.8708 10.3088 15.5215C10.2453 15.1723 10.185 14.8294 10.1278 14.4928C10.077 14.15 10.0389 13.861 10.0135 13.6261C9.98815 13.861 9.94687 14.15 9.88972 14.4928C9.83258 14.8294 9.76908 15.1723 9.69923 15.5215C9.63573 15.8708 9.57223 16.1819 9.50873 16.455C9.45158 16.728 9.41031 16.9217 9.38491 17.036L8.0419 23.1033H3.59378L0.145767 9.17796H3.77475L5.28921 16.1597C5.3273 16.3312 5.3781 16.5756 5.4416 16.8931C5.51145 17.2043 5.5813 17.5472 5.65115 17.9218C5.72735 18.2901 5.7972 18.6457 5.8607 18.9886C5.9242 19.3315 5.96865 19.6172 5.99405 19.8458C6.04485 19.4521 6.11152 19.0045 6.19407 18.5028C6.28297 18.0012 6.37822 17.4932 6.47982 16.9788C6.58776 16.4581 6.68936 15.9756 6.78461 15.5311C6.87986 15.0866 6.96241 14.7246 7.03226 14.4452L8.26097 9.17796H11.7471L12.9377 14.4452C13.0012 14.7183 13.0806 15.0802 13.1758 15.5311C13.2774 15.9756 13.379 16.4581 13.4806 16.9788C13.5886 17.4995 13.687 18.0139 13.7759 18.5219C13.8648 19.0235 13.9315 19.4648 13.9759 19.8458C14.014 19.5283 14.0775 19.1283 14.1664 18.6457C14.2553 18.1568 14.3442 17.6837 14.4331 17.2265C14.5283 16.7629 14.6014 16.4137 14.6522 16.1788L16.1952 9.17796H19.8242Z" fill="black"/>
<path d="M25.0926 12.1212C26.1403 12.1212 27.0452 12.3053 27.8072 12.6736C28.5692 13.0355 29.1565 13.5816 29.5693 14.3119C29.982 15.0421 30.1884 15.9565 30.1884 17.055V18.7124H23.5305C23.5623 19.2775 23.7718 19.7411 24.1591 20.103C24.5528 20.465 25.1307 20.6459 25.8927 20.6459C26.5658 20.6459 27.1817 20.5793 27.7405 20.4459C28.3056 20.3126 28.8867 20.1062 29.4836 19.8268V22.5033C28.9629 22.7763 28.3945 22.9763 27.7786 23.1033C27.1627 23.2303 26.3848 23.2938 25.445 23.2938C24.3592 23.2938 23.3876 23.1002 22.5304 22.7128C21.6732 22.3255 20.9969 21.7254 20.5016 20.9126C20.0126 20.0998 19.7682 19.0553 19.7682 17.7789C19.7682 16.4835 19.9904 15.4199 20.4349 14.5881C20.8794 13.7499 21.5017 13.1308 22.3018 12.7307C23.1019 12.3243 24.0321 12.1212 25.0926 12.1212ZM25.2259 14.6548C24.7878 14.6548 24.4195 14.7945 24.121 15.0739C23.829 15.3469 23.6575 15.7787 23.6067 16.3693H26.8071C26.8007 16.0518 26.7372 15.7628 26.6166 15.5025C26.4959 15.2421 26.3181 15.0358 26.0832 14.8834C25.8546 14.731 25.5688 14.6548 25.2259 14.6548Z" fill="black"/>
<path d="M35.4324 8.28262V11.6354C35.4324 12.0164 35.4197 12.3815 35.3943 12.7307C35.3689 13.0736 35.3372 13.3975 35.2991 13.7023H35.4324C35.7118 13.2641 36.0769 12.8927 36.5278 12.5879C36.9786 12.2767 37.5692 12.1212 38.2994 12.1212C39.4233 12.1212 40.3409 12.5974 41.0521 13.5499C41.7696 14.5024 42.1284 15.8803 42.1284 17.6837C42.1284 18.9092 41.9633 19.9411 41.6331 20.7793C41.3029 21.6111 40.8394 22.2398 40.2425 22.6652C39.6519 23.0843 38.9662 23.2938 38.1851 23.2938C37.4231 23.2938 36.8421 23.1637 36.4421 22.9033C36.0484 22.6366 35.7118 22.3509 35.4324 22.0461H35.2038L34.6133 23.1033H31.7082V8.28262H35.4324ZM36.9373 15.0453C36.5945 15.0453 36.3119 15.1247 36.0896 15.2834C35.8674 15.4422 35.7023 15.6898 35.5943 16.0264C35.4864 16.3566 35.4324 16.7788 35.4324 17.2932V17.817C35.4324 18.6552 35.5435 19.2775 35.7658 19.6839C35.9944 20.0903 36.3976 20.2935 36.9754 20.2935C37.4136 20.2935 37.7501 20.0681 37.9851 19.6172C38.22 19.1664 38.3375 18.5092 38.3375 17.6456C38.3375 16.782 38.2232 16.1343 37.9946 15.7025C37.766 15.2644 37.4136 15.0453 36.9373 15.0453Z" fill="black"/>
<path d="M48.9105 9.17796C50.6758 9.17796 51.9966 9.56213 52.8729 10.3305C53.7555 11.0988 54.1968 12.191 54.1968 13.607C54.1968 14.242 54.1048 14.8516 53.9206 15.4358C53.7428 16.02 53.4475 16.5407 53.0348 16.9979C52.6284 17.4551 52.0855 17.817 51.406 18.0837C50.7329 18.3504 49.9011 18.4838 48.9105 18.4838H47.8533V23.1033H44.0909V9.17796H48.9105ZM48.8248 12.2164H47.8533V15.4168H48.5962C48.92 15.4168 49.2217 15.3628 49.5011 15.2548C49.7805 15.1405 50.0027 14.9596 50.1678 14.7119C50.3392 14.4579 50.425 14.1214 50.425 13.7023C50.425 13.2641 50.2948 12.9085 50.0345 12.6355C49.7741 12.3561 49.3709 12.2164 48.8248 12.2164Z" fill="black"/>
<path d="M60.2939 12.1212C61.6591 12.1212 62.7259 12.4609 63.4943 13.1403C64.2626 13.8134 64.6468 14.7754 64.6468 16.0264V23.1033H62.0655L61.3512 21.6746H61.275C60.9702 22.0556 60.6558 22.3668 60.332 22.6081C60.0145 22.843 59.6494 23.0144 59.2366 23.1224C58.8239 23.2367 58.3191 23.2938 57.7222 23.2938C57.0999 23.2938 56.5411 23.1668 56.0458 22.9128C55.5505 22.6589 55.16 22.2747 54.8742 21.7603C54.5885 21.246 54.4456 20.5951 54.4456 19.8077C54.4456 18.652 54.8457 17.7948 55.6458 17.236C56.4458 16.6772 57.6047 16.3629 59.1223 16.2931L60.9225 16.2359V16.0835C60.9225 15.6009 60.8019 15.258 60.5606 15.0548C60.3256 14.8516 60.0081 14.75 59.6081 14.75C59.1827 14.75 58.7064 14.8262 58.1794 14.9786C57.6587 15.1247 57.1348 15.3152 56.6078 15.5501L55.5315 13.0927C56.1537 12.7752 56.8586 12.5339 57.646 12.3688C58.4334 12.2037 59.316 12.1212 60.2939 12.1212ZM60.9416 18.2838L60.0843 18.3219C59.3986 18.3473 58.916 18.4679 58.6366 18.6838C58.3635 18.8933 58.227 19.195 58.227 19.5887C58.227 19.957 58.3254 20.23 58.5223 20.4078C58.7191 20.5793 58.9795 20.665 59.3033 20.665C59.7542 20.665 60.1383 20.5221 60.4558 20.2364C60.7797 19.9506 60.9416 19.5791 60.9416 19.1219V18.2838Z" fill="black"/>
<path d="M70.4764 27.7896C68.946 27.7896 67.765 27.5324 66.9331 27.0181C66.1076 26.5101 65.6949 25.7767 65.6949 24.8178C65.6949 24.1765 65.8949 23.6463 66.295 23.2272C66.695 22.8081 67.2951 22.5065 68.0952 22.3223C67.765 22.1826 67.476 21.9572 67.2284 21.646C66.9871 21.3349 66.8664 21.0269 66.8664 20.7221C66.8664 20.3856 66.9585 20.0903 67.1427 19.8363C67.3268 19.576 67.711 19.268 68.2952 18.9124C67.7364 18.6647 67.2951 18.2774 66.9712 17.7504C66.6537 17.2233 66.495 16.582 66.495 15.8263C66.495 15.0453 66.6728 14.3785 67.0284 13.8261C67.3903 13.2737 67.9142 12.8514 68.6 12.5593C69.2921 12.2672 70.1335 12.1212 71.1241 12.1212C71.2574 12.1212 71.4606 12.1339 71.7337 12.1593C72.0067 12.1783 72.2829 12.2037 72.5623 12.2355C72.8417 12.2609 73.0576 12.2862 73.21 12.3116H76.9724V14.1119L75.496 14.6548C75.5976 14.8389 75.6738 15.0389 75.7246 15.2548C75.7754 15.4707 75.8008 15.6993 75.8008 15.9406C75.8008 17.1027 75.3912 18.0044 74.5721 18.6457C73.7593 19.287 72.5433 19.6077 70.924 19.6077C70.524 19.6077 70.2065 19.5823 69.9716 19.5315C69.9271 19.6141 69.8922 19.6966 69.8668 19.7792C69.8477 19.8554 69.8382 19.9284 69.8382 19.9982C69.8382 20.1443 69.9239 20.2618 70.0954 20.3507C70.2732 20.4332 70.4859 20.4904 70.7336 20.5221C70.9875 20.5539 71.2288 20.5697 71.4574 20.5697H73.2481C74.461 20.5697 75.369 20.8237 75.9722 21.3317C76.5755 21.8397 76.8771 22.6049 76.8771 23.6272C76.8771 24.9416 76.3151 25.964 75.1912 26.6942C74.0736 27.4245 72.502 27.7896 70.4764 27.7896ZM70.6574 25.4655C71.1082 25.4655 71.5622 25.4242 72.0194 25.3417C72.4766 25.2655 72.8608 25.1385 73.1719 24.9607C73.4831 24.7829 73.6386 24.548 73.6386 24.2559C73.6386 24.0336 73.5466 23.8653 73.3624 23.751C73.1783 23.6431 72.9402 23.5701 72.6481 23.532C72.356 23.4939 72.048 23.4748 71.7241 23.4748H70.2764C70.0097 23.4748 69.7652 23.5161 69.5429 23.5986C69.327 23.6875 69.1556 23.805 69.0286 23.9511C68.9016 24.0971 68.8381 24.2622 68.8381 24.4464C68.8381 24.7512 69.0032 24.9956 69.3334 25.1798C69.6636 25.3703 70.1049 25.4655 70.6574 25.4655ZM71.1622 17.5027C71.5178 17.5027 71.7908 17.3662 71.9813 17.0931C72.1782 16.8201 72.2766 16.4105 72.2766 15.8644C72.2766 15.3056 72.1845 14.8865 72.0004 14.6071C71.8162 14.3278 71.5368 14.1881 71.1622 14.1881C70.7748 14.1881 70.4859 14.3278 70.2954 14.6071C70.1049 14.8802 70.0097 15.2929 70.0097 15.8454C70.0097 16.3978 70.1049 16.8137 70.2954 17.0931C70.4859 17.3662 70.7748 17.5027 71.1622 17.5027Z" fill="black"/>
<path d="M83.0877 12.1212C84.1354 12.1212 85.0403 12.3053 85.8023 12.6736C86.5643 13.0355 87.1517 13.5816 87.5644 14.3119C87.9771 15.0421 88.1835 15.9565 88.1835 17.055V18.7124H81.5256C81.5574 19.2775 81.7669 19.7411 82.1543 20.103C82.548 20.465 83.1258 20.6459 83.8878 20.6459C84.5609 20.6459 85.1768 20.5793 85.7356 20.4459C86.3008 20.3126 86.8818 20.1062 87.4787 19.8268V22.5033C86.958 22.7763 86.3897 22.9763 85.7737 23.1033C85.1578 23.2303 84.3799 23.2938 83.4401 23.2938C82.3543 23.2938 81.3828 23.1002 80.5255 22.7128C79.6683 22.3255 78.992 21.7254 78.4967 20.9126C78.0078 20.0998 77.7633 19.0553 77.7633 17.7789C77.7633 16.4835 77.9855 15.4199 78.43 14.5881C78.8745 13.7499 79.4968 13.1308 80.2969 12.7307C81.097 12.3243 82.0273 12.1212 83.0877 12.1212ZM83.2211 14.6548C82.7829 14.6548 82.4146 14.7945 82.1162 15.0739C81.8241 15.3469 81.6526 15.7787 81.6018 16.3693H84.8022C84.7958 16.0518 84.7323 15.7628 84.6117 15.5025C84.491 15.2421 84.3132 15.0358 84.0783 14.8834C83.8497 14.731 83.5639 14.6548 83.2211 14.6548Z" fill="black"/>
<path d="M95.4807 23.1033H91.7184V12.2545H88.318V9.17796H98.8716V12.2545H95.4807V23.1033Z" fill="black"/>
<path d="M103.94 12.1212C104.988 12.1212 105.893 12.3053 106.655 12.6736C107.417 13.0355 108.004 13.5816 108.417 14.3119C108.83 15.0421 109.036 15.9565 109.036 17.055V18.7124H102.378C102.41 19.2775 102.62 19.7411 103.007 20.103C103.401 20.465 103.978 20.6459 104.74 20.6459C105.414 20.6459 106.029 20.5793 106.588 20.4459C107.153 20.3126 107.734 20.1062 108.331 19.8268V22.5033C107.811 22.7763 107.242 22.9763 106.626 23.1033C106.01 23.2303 105.233 23.2938 104.293 23.2938C103.207 23.2938 102.235 23.1002 101.378 22.7128C100.521 22.3255 99.8446 21.7254 99.3493 20.9126C98.8604 20.0998 98.6159 19.0553 98.6159 17.7789C98.6159 16.4835 98.8382 15.4199 99.2827 14.5881C99.7272 13.7499 100.349 13.1308 101.15 12.7307C101.95 12.3243 102.88 12.1212 103.94 12.1212ZM104.074 14.6548C103.636 14.6548 103.267 14.7945 102.969 15.0739C102.677 15.3469 102.505 15.7787 102.454 16.3693H105.655C105.648 16.0518 105.585 15.7628 105.464 15.5025C105.344 15.2421 105.166 15.0358 104.931 14.8834C104.702 14.731 104.417 14.6548 104.074 14.6548Z" fill="black"/>
<path d="M118.771 19.7887C118.771 20.4745 118.619 21.0809 118.314 21.6079C118.009 22.135 117.52 22.5477 116.847 22.8462C116.18 23.1446 115.301 23.2938 114.209 23.2938C113.44 23.2938 112.751 23.2526 112.142 23.17C111.538 23.0875 110.926 22.9287 110.303 22.6938V19.7125C110.983 20.0236 111.675 20.2491 112.38 20.3888C113.085 20.5221 113.64 20.5888 114.047 20.5888C114.466 20.5888 114.771 20.5443 114.961 20.4554C115.158 20.3602 115.256 20.2205 115.256 20.0363C115.256 19.8776 115.19 19.7442 115.056 19.6363C114.929 19.522 114.697 19.3918 114.361 19.2458C114.031 19.0997 113.564 18.9029 112.961 18.6552C112.364 18.4076 111.865 18.1377 111.465 17.8456C111.072 17.5535 110.776 17.2043 110.58 16.7979C110.383 16.3915 110.284 15.893 110.284 15.3025C110.284 14.2484 110.691 13.4546 111.503 12.9212C112.316 12.3878 113.393 12.1212 114.732 12.1212C115.444 12.1212 116.114 12.2005 116.742 12.3593C117.371 12.5117 118.022 12.7371 118.695 13.0355L117.676 15.4358C117.142 15.1945 116.602 15.0008 116.056 14.8548C115.51 14.7087 115.075 14.6357 114.751 14.6357C114.459 14.6357 114.234 14.6738 114.075 14.75C113.916 14.8262 113.837 14.9373 113.837 15.0834C113.837 15.2167 113.891 15.3342 113.999 15.4358C114.113 15.5374 114.326 15.6549 114.637 15.7882C114.948 15.9216 115.402 16.1089 115.999 16.3502C116.628 16.6042 117.145 16.8772 117.552 17.1693C117.965 17.4551 118.269 17.8043 118.466 18.2171C118.669 18.6298 118.771 19.1537 118.771 19.7887Z" fill="black"/>
<path d="M125.939 20.3507C126.275 20.3507 126.583 20.3157 126.863 20.2459C127.142 20.176 127.434 20.0871 127.739 19.9792V22.6938C127.332 22.8716 126.901 23.0144 126.443 23.1224C125.993 23.2367 125.415 23.2938 124.71 23.2938C124.011 23.2938 123.395 23.1859 122.862 22.97C122.329 22.7477 121.913 22.3668 121.614 21.827C121.322 21.2809 121.176 20.5221 121.176 19.5506V15.1024H119.871V13.588L121.529 12.4164L122.491 10.1495H124.929V12.3116H127.577V15.1024H124.929V19.3029C124.929 19.6522 125.018 19.9157 125.196 20.0935C125.374 20.2649 125.621 20.3507 125.939 20.3507Z" fill="black"/>
<rect x="137.582" y="1.9391" width="45.8269" height="28.3205" rx="7.31608" fill="url(#paint0_linear_4_128)" stroke="white" stroke-width="1.98987"/>
<path d="M150.839 9.05041C152.587 9.05041 153.862 9.42725 154.666 10.1809C155.469 10.9284 155.87 11.9601 155.87 13.2759C155.87 13.869 155.781 14.4373 155.602 14.981C155.422 15.5184 155.129 15.9972 154.721 16.4173C154.32 16.8373 153.782 17.1709 153.109 17.418C152.435 17.659 151.605 17.7794 150.616 17.7794H149.384V22.598H146.511V9.05041H150.839ZM150.69 11.4041H149.384V15.4257H150.329C150.866 15.4257 151.333 15.3547 151.728 15.2126C152.123 15.0705 152.429 14.8481 152.645 14.5454C152.862 14.2427 152.97 13.8535 152.97 13.3779C152.97 12.7107 152.784 12.2165 152.414 11.8952C152.043 11.5678 151.469 11.4041 150.69 11.4041ZM163.418 12.0435C163.56 12.0435 163.724 12.0527 163.909 12.0713C164.101 12.0836 164.255 12.1022 164.373 12.1269L164.16 14.7771C164.067 14.7462 163.934 14.7246 163.761 14.7122C163.594 14.6937 163.449 14.6844 163.326 14.6844C162.961 14.6844 162.606 14.7308 162.26 14.8234C161.92 14.9161 161.614 15.0674 161.343 15.2775C161.071 15.4813 160.855 15.7532 160.694 16.0929C160.54 16.4265 160.462 16.8373 160.462 17.3254V22.598H157.636V12.2381H159.777L160.194 13.9802H160.333C160.536 13.628 160.79 13.3068 161.092 13.0165C161.401 12.7199 161.75 12.4852 162.14 12.3122C162.535 12.1331 162.961 12.0435 163.418 12.0435ZM175.099 17.3995C175.099 18.2644 174.982 19.0304 174.747 19.6976C174.519 20.3648 174.182 20.93 173.737 21.3934C173.298 21.8505 172.767 22.1964 172.143 22.4312C171.525 22.6659 170.827 22.7833 170.049 22.7833C169.32 22.7833 168.65 22.6659 168.038 22.4312C167.433 22.1964 166.905 21.8505 166.454 21.3934C166.009 20.93 165.663 20.3648 165.416 19.6976C165.175 19.0304 165.054 18.2644 165.054 17.3995C165.054 16.2505 165.258 15.2775 165.666 14.4806C166.074 13.6836 166.654 13.0782 167.408 12.6643C168.162 12.2504 169.061 12.0435 170.105 12.0435C171.075 12.0435 171.933 12.2504 172.681 12.6643C173.434 13.0782 174.024 13.6836 174.451 14.4806C174.883 15.2775 175.099 16.2505 175.099 17.3995ZM167.936 17.3995C167.936 18.079 168.01 18.6505 168.159 19.1138C168.307 19.5771 168.539 19.9262 168.854 20.1609C169.169 20.3957 169.58 20.513 170.086 20.513C170.586 20.513 170.991 20.3957 171.3 20.1609C171.615 19.9262 171.844 19.5771 171.986 19.1138C172.134 18.6505 172.208 18.079 172.208 17.3995C172.208 16.7138 172.134 16.1454 171.986 15.6945C171.844 15.2373 171.615 14.8945 171.3 14.6659C170.985 14.4373 170.574 14.323 170.068 14.323C169.32 14.323 168.776 14.5794 168.437 15.0922C168.103 15.6049 167.936 16.374 167.936 17.3995Z" fill="white"/>
<defs>
<linearGradient id="paint0_linear_4_128" x1="154.272" y1="14.9191" x2="173.016" y2="24.4232" gradientUnits="userSpaceOnUse">
<stop stop-color="#80BC06"/>
<stop offset="1" stop-color="#68A718"/>
</linearGradient>
</defs>
</svg>
