<svg width="235" height="64" viewBox="0 0 235 64" fill="none" xmlns="http://www.w3.org/2000/svg">
<path d="M26.7149 23.6415L21.8036 42.9435H17.1431L14.5291 32.804C14.4762 32.6103 14.4058 32.3155 14.3178 31.9194C14.2298 31.5233 14.1374 31.092 14.0406 30.6256C13.9438 30.1503 13.8557 29.7058 13.7765 29.2921C13.7061 28.8696 13.6577 28.5352 13.6313 28.2887C13.6049 28.5352 13.5521 28.8652 13.4729 29.2789C13.4024 29.6926 13.3188 30.1327 13.222 30.5992C13.134 31.0656 13.046 31.5013 12.958 31.9062C12.87 32.3111 12.7995 32.6191 12.7467 32.8304L10.1458 42.9435H5.49858L0.574066 23.6415H4.60081L7.06967 34.177C7.14009 34.4939 7.2193 34.8724 7.30732 35.3124C7.40414 35.7525 7.49655 36.2146 7.58457 36.6987C7.68139 37.174 7.765 37.6361 7.83542 38.0849C7.91463 38.525 7.97184 38.9079 8.00705 39.2336C8.05106 38.8991 8.10827 38.5118 8.17868 38.0717C8.24909 37.6229 8.32391 37.1696 8.40312 36.7119C8.49114 36.2454 8.57915 35.8141 8.66717 35.4181C8.75519 35.022 8.8344 34.7007 8.90481 34.4543L11.7169 23.6415H15.5853L18.3974 34.4543C18.459 34.6919 18.5294 35.0132 18.6086 35.4181C18.6966 35.8141 18.7846 36.2454 18.8727 36.7119C18.9607 37.1784 19.0399 37.6361 19.1103 38.0849C19.1895 38.525 19.2467 38.9079 19.2819 39.2336C19.3436 38.7935 19.4272 38.261 19.5328 37.6361C19.6472 37.0023 19.766 36.373 19.8893 35.7481C20.0213 35.1232 20.1357 34.5995 20.2325 34.177L22.6882 23.6415H26.7149ZM34.9136 27.9059C36.2779 27.9059 37.4529 28.1699 38.4387 28.698C39.4245 29.2173 40.1858 29.9742 40.7227 30.9688C41.2596 31.9634 41.5281 33.178 41.5281 34.6127V36.5667H32.0091C32.0531 37.7021 32.392 38.5954 33.0257 39.2468C33.6682 39.8893 34.5572 40.2105 35.6926 40.2105C36.6344 40.2105 37.4969 40.1137 38.2803 39.9201C39.0636 39.7265 39.869 39.436 40.6963 39.0487V42.1645C39.9658 42.5254 39.2 42.7894 38.3991 42.9567C37.6069 43.1239 36.6432 43.2075 35.5078 43.2075C34.0291 43.2075 32.7176 42.9346 31.5734 42.3889C30.438 41.8432 29.5446 41.0115 28.8933 39.8937C28.2508 38.7759 27.9295 37.3676 27.9295 35.6689C27.9295 33.9438 28.22 32.5091 28.8009 31.3649C29.3906 30.2119 30.2092 29.3493 31.2566 28.7772C32.304 28.1963 33.523 27.9059 34.9136 27.9059ZM34.9401 30.7708C34.1567 30.7708 33.5054 31.0216 32.9861 31.5233C32.4756 32.025 32.1807 32.8128 32.1015 33.8866H37.7522C37.7434 33.2881 37.6334 32.7556 37.4221 32.2891C37.2197 31.8226 36.9116 31.4529 36.4979 31.1801C36.0931 30.9072 35.5738 30.7708 34.9401 30.7708ZM48.829 22.4004V27.1797C48.829 27.7342 48.8114 28.2843 48.7762 28.83C48.7498 29.3757 48.7146 29.7982 48.6706 30.0975H48.829C49.2163 29.4902 49.7444 28.9753 50.4133 28.5528C51.0823 28.1215 51.9492 27.9059 53.0142 27.9059C54.6689 27.9059 56.0112 28.5528 57.041 29.8466C58.0707 31.1405 58.5856 33.0372 58.5856 35.5369C58.5856 37.218 58.348 38.6306 57.8727 39.7749C57.3974 40.9103 56.7329 41.7684 55.8791 42.3493C55.0254 42.9214 54.0352 43.2075 52.9086 43.2075C51.826 43.2075 50.9722 43.0139 50.3473 42.6266C49.7224 42.2393 49.2163 41.8036 48.829 41.3195H48.5518L47.8785 42.9435H44.8023V22.4004H48.829ZM51.7204 31.1273C51.0162 31.1273 50.4573 31.2725 50.0437 31.5629C49.63 31.8534 49.3263 32.2891 49.1327 32.87C48.9479 33.4509 48.8466 34.1858 48.829 35.0748V35.5105C48.829 36.9451 49.0403 38.0453 49.4628 38.8111C49.8852 39.568 50.6554 39.9465 51.7732 39.9465C52.6005 39.9465 53.2563 39.5636 53.7403 38.7979C54.2332 38.0321 54.4797 36.9275 54.4797 35.4841C54.4797 34.0406 54.2332 32.9536 53.7403 32.2231C53.2475 31.4925 52.5741 31.1273 51.7204 31.1273ZM68.3951 23.6415C70.8859 23.6415 72.7035 24.1784 73.8477 25.2522C74.9919 26.3172 75.564 27.787 75.564 29.6618C75.564 30.5067 75.4364 31.3165 75.1811 32.091C74.9259 32.8568 74.5078 33.5389 73.9269 34.1374C73.3548 34.7359 72.589 35.2112 71.6297 35.5633C70.6703 35.9065 69.4865 36.0782 68.0782 36.0782H66.3223V42.9435H62.2295V23.6415H68.3951ZM68.1838 26.9949H66.3223V32.7248H67.6689C68.4347 32.7248 69.0992 32.6235 69.6625 32.4211C70.2258 32.2187 70.6615 31.9018 70.9695 31.4705C71.2776 31.0392 71.4316 30.4847 71.4316 29.807C71.4316 28.8564 71.1676 28.1523 70.6395 27.6946C70.1114 27.2281 69.2928 26.9949 68.1838 26.9949ZM84.9377 27.8795C86.9181 27.8795 88.4364 28.3107 89.4926 29.1733C90.5488 30.0359 91.0769 31.3473 91.0769 33.1076V42.9435H88.2648L87.4858 40.9367H87.3802C86.9577 41.4648 86.5264 41.8961 86.0864 42.2305C85.6463 42.565 85.1402 42.8114 84.5681 42.9699C83.996 43.1283 83.3006 43.2075 82.4821 43.2075C81.6107 43.2075 80.8274 43.0403 80.132 42.7058C79.4455 42.3713 78.9042 41.8608 78.5081 41.1743C78.1121 40.479 77.914 39.5988 77.914 38.5338C77.914 36.9671 78.4641 35.8141 79.5643 35.0748C80.6645 34.3266 82.3149 33.913 84.5153 33.8338L87.0765 33.7545V33.1076C87.0765 32.3331 86.8741 31.7654 86.4692 31.4045C86.0644 31.0436 85.501 30.8632 84.7793 30.8632C84.0664 30.8632 83.3666 30.9644 82.6801 31.1669C81.9936 31.3693 81.3071 31.6245 80.6205 31.9326L79.2871 29.2129C80.0704 28.7992 80.9462 28.4736 81.9144 28.2359C82.8914 27.9983 83.8991 27.8795 84.9377 27.8795ZM87.0765 36.1046L85.5186 36.1574C84.216 36.1926 83.3094 36.4258 82.7989 36.8571C82.2973 37.2884 82.0464 37.8561 82.0464 38.5602C82.0464 39.1764 82.2268 39.6164 82.5877 39.8805C82.9486 40.1357 83.4195 40.2634 84.0004 40.2634C84.8629 40.2634 85.5891 40.0081 86.1788 39.4976C86.7773 38.9871 87.0765 38.261 87.0765 37.3192V36.1046ZM99.5529 49.4391C97.4933 49.4391 95.9178 49.0782 94.8264 48.3565C93.7438 47.6435 93.2025 46.6401 93.2025 45.3463C93.2025 44.4573 93.4797 43.7136 94.0342 43.1151C94.5887 42.5166 95.4029 42.0897 96.4767 41.8344C96.063 41.6584 95.7021 41.3724 95.3941 40.9763C95.086 40.5714 94.932 40.1445 94.932 39.6956C94.932 39.1323 95.0948 38.6659 95.4205 38.2962C95.7461 37.9177 96.217 37.548 96.8331 37.1872C96.0586 36.8527 95.4425 36.3158 94.9848 35.5765C94.5359 34.8371 94.3115 33.9658 94.3115 32.9624C94.3115 31.8886 94.5447 30.9776 95.0112 30.2295C95.4865 29.4725 96.173 28.896 97.0708 28.5C97.9774 28.1039 99.0776 27.9059 100.371 27.9059C100.644 27.9059 100.961 27.9235 101.322 27.9587C101.683 27.9939 102.013 28.0335 102.312 28.0775C102.62 28.1215 102.827 28.1567 102.933 28.1831H108.082V30.2295L105.771 30.8236C105.982 31.1493 106.141 31.4969 106.246 31.8666C106.352 32.2363 106.405 32.6279 106.405 33.0416C106.405 34.6259 105.85 35.8625 104.741 36.7515C103.641 37.6317 102.11 38.0717 100.147 38.0717C99.6805 38.0453 99.2404 38.0101 98.8267 37.9661C98.6243 38.1246 98.4703 38.2918 98.3646 38.4678C98.259 38.6439 98.2062 38.8287 98.2062 39.0223C98.2062 39.216 98.2854 39.3788 98.4438 39.5108C98.6111 39.634 98.8575 39.7309 99.1832 39.8013C99.5176 39.8629 99.9313 39.8937 100.424 39.8937H102.933C104.552 39.8937 105.784 40.2413 106.629 40.9367C107.483 41.632 107.91 42.653 107.91 43.9996C107.91 45.7248 107.188 47.0626 105.745 48.0132C104.31 48.9638 102.246 49.4391 99.5529 49.4391ZM99.7245 46.8118C100.684 46.8118 101.507 46.7194 102.193 46.5345C102.889 46.3585 103.421 46.1032 103.791 45.7688C104.161 45.4431 104.345 45.0514 104.345 44.5938C104.345 44.2241 104.235 43.9292 104.015 43.7092C103.804 43.498 103.478 43.3483 103.038 43.2603C102.607 43.1723 102.053 43.1283 101.375 43.1283H99.2888C98.7959 43.1283 98.3514 43.2075 97.9554 43.3659C97.5681 43.5244 97.26 43.7444 97.0312 44.0261C96.8023 44.3165 96.6879 44.651 96.6879 45.0294C96.6879 45.5839 96.952 46.0196 97.4801 46.3365C98.017 46.6533 98.7651 46.8118 99.7245 46.8118ZM100.371 35.6161C101.128 35.6161 101.683 35.3828 102.035 34.9164C102.387 34.4499 102.563 33.8162 102.563 33.0152C102.563 32.1262 102.378 31.4617 102.009 31.0216C101.648 30.5728 101.102 30.3483 100.371 30.3483C99.6321 30.3483 99.0776 30.5728 98.7079 31.0216C98.3382 31.4617 98.1534 32.1262 98.1534 33.0152C98.1534 33.8162 98.3338 34.4499 98.6947 34.9164C99.0644 35.3828 99.6233 35.6161 100.371 35.6161ZM116.61 27.9059C117.975 27.9059 119.15 28.1699 120.135 28.698C121.121 29.2173 121.883 29.9742 122.42 30.9688C122.956 31.9634 123.225 33.178 123.225 34.6127V36.5667H113.706C113.75 37.7021 114.089 38.5954 114.722 39.2468C115.365 39.8893 116.254 40.2105 117.389 40.2105C118.331 40.2105 119.194 40.1137 119.977 39.9201C120.76 39.7265 121.566 39.436 122.393 39.0487V42.1645C121.663 42.5254 120.897 42.7894 120.096 42.9567C119.304 43.1239 118.34 43.2075 117.205 43.2075C115.726 43.2075 114.414 42.9346 113.27 42.3889C112.135 41.8432 111.241 41.0115 110.59 39.8937C109.948 38.7759 109.626 37.3676 109.626 35.6689C109.626 33.9438 109.917 32.5091 110.498 31.3649C111.087 30.2119 111.906 29.3493 112.953 28.7772C114.001 28.1963 115.22 27.9059 116.61 27.9059ZM116.637 30.7708C115.853 30.7708 115.202 31.0216 114.683 31.5233C114.172 32.025 113.878 32.8128 113.798 33.8866H119.449C119.44 33.2881 119.33 32.7556 119.119 32.2891C118.916 31.8226 118.608 31.4529 118.195 31.1801C117.79 30.9072 117.271 30.7708 116.637 30.7708ZM134.262 42.9435H130.169V27.0477H124.928V23.6415H139.503V27.0477H134.262V42.9435ZM148.244 27.9059C149.608 27.9059 150.783 28.1699 151.769 28.698C152.754 29.2173 153.516 29.9742 154.053 30.9688C154.589 31.9634 154.858 33.178 154.858 34.6127V36.5667H145.339C145.383 37.7021 145.722 38.5954 146.356 39.2468C146.998 39.8893 147.887 40.2105 149.022 40.2105C149.964 40.2105 150.827 40.1137 151.61 39.9201C152.393 39.7265 153.199 39.436 154.026 39.0487V42.1645C153.296 42.5254 152.53 42.7894 151.729 42.9567C150.937 43.1239 149.973 43.2075 148.838 43.2075C147.359 43.2075 146.047 42.9346 144.903 42.3889C143.768 41.8432 142.875 41.0115 142.223 39.8937C141.581 38.7759 141.259 37.3676 141.259 35.6689C141.259 33.9438 141.55 32.5091 142.131 31.3649C142.72 30.2119 143.539 29.3493 144.586 28.7772C145.634 28.1963 146.853 27.9059 148.244 27.9059ZM148.27 30.7708C147.487 30.7708 146.835 31.0216 146.316 31.5233C145.805 32.025 145.511 32.8128 145.431 33.8866H151.082C151.073 33.2881 150.963 32.7556 150.752 32.2891C150.55 31.8226 150.241 31.4529 149.828 31.1801C149.423 30.9072 148.904 30.7708 148.27 30.7708ZM168.43 38.5602C168.43 39.5636 168.192 40.413 167.717 41.1083C167.251 41.7948 166.551 42.3185 165.618 42.6794C164.685 43.0315 163.523 43.2075 162.132 43.2075C161.103 43.2075 160.218 43.1415 159.479 43.0095C158.748 42.8774 158.009 42.6574 157.261 42.3493V39.0223C158.062 39.3832 158.92 39.6824 159.835 39.9201C160.759 40.1489 161.569 40.2634 162.265 40.2634C163.048 40.2634 163.607 40.1489 163.941 39.9201C164.284 39.6824 164.456 39.3744 164.456 38.9959C164.456 38.7495 164.386 38.5294 164.245 38.3358C164.113 38.1334 163.822 37.9089 163.374 37.6625C162.925 37.4072 162.22 37.0772 161.261 36.6723C160.337 36.285 159.576 35.8933 158.977 35.4973C158.387 35.1012 157.947 34.6347 157.657 34.0978C157.375 33.5521 157.234 32.8612 157.234 32.025C157.234 30.6608 157.762 29.6354 158.819 28.9489C159.884 28.2535 161.305 27.9059 163.083 27.9059C163.998 27.9059 164.87 27.9983 165.697 28.1831C166.533 28.3679 167.391 28.6628 168.272 29.0677L167.057 31.9722C166.326 31.6554 165.636 31.3957 164.984 31.1933C164.342 30.9908 163.686 30.8896 163.017 30.8896C162.427 30.8896 161.983 30.9688 161.684 31.1273C161.384 31.2857 161.235 31.5277 161.235 31.8534C161.235 32.091 161.31 32.3023 161.459 32.4871C161.618 32.6719 161.917 32.8788 162.357 33.1076C162.806 33.3277 163.462 33.6137 164.324 33.9658C165.16 34.309 165.886 34.6699 166.502 35.0484C167.119 35.4181 167.594 35.8801 167.928 36.4346C168.263 36.9803 168.43 37.6889 168.43 38.5602ZM177.791 39.9993C178.231 39.9993 178.658 39.9553 179.071 39.8673C179.494 39.7793 179.912 39.6692 180.325 39.5372V42.5342C179.894 42.7278 179.357 42.8862 178.715 43.0095C178.081 43.1415 177.386 43.2075 176.629 43.2075C175.749 43.2075 174.956 43.0667 174.252 42.785C173.557 42.4946 173.007 41.9973 172.602 41.2931C172.206 40.5802 172.008 39.59 172.008 38.3226V31.2065H170.08V29.5034L172.298 28.1567L173.46 25.0409H176.035V28.1831H180.167V31.2065H176.035V38.3226C176.035 38.8859 176.193 39.3084 176.51 39.59C176.836 39.8629 177.262 39.9993 177.791 39.9993Z" fill="#1E4078"/>
<rect x="187.26" y="18.6002" width="45.8269" height="28.3205" rx="7.31608" fill="url(#paint0_linear_5_291)" stroke="white" stroke-width="1.98987"/>
<path d="M200.516 25.7115C202.264 25.7115 203.54 26.0883 204.343 26.842C205.146 27.5895 205.548 28.6212 205.548 29.937C205.548 30.53 205.458 31.0984 205.279 31.642C205.1 32.1795 204.806 32.6582 204.399 33.0783C203.997 33.4984 203.46 33.832 202.786 34.0791C202.113 34.32 201.282 34.4405 200.294 34.4405H199.061V39.2591H196.189V25.7115H200.516ZM200.368 28.0652H199.061V32.0868H200.006C200.544 32.0868 201.01 32.0158 201.406 31.8737C201.801 31.7316 202.107 31.5092 202.323 31.2065C202.539 30.9038 202.647 30.5146 202.647 30.0389C202.647 29.3717 202.462 28.8775 202.091 28.5563C201.721 28.2289 201.146 28.0652 200.368 28.0652ZM213.096 28.7046C213.238 28.7046 213.402 28.7138 213.587 28.7324C213.778 28.7447 213.933 28.7632 214.05 28.788L213.837 31.4382C213.744 31.4073 213.612 31.3857 213.439 31.3733C213.272 31.3548 213.127 31.3455 213.003 31.3455C212.639 31.3455 212.283 31.3918 211.937 31.4845C211.598 31.5772 211.292 31.7285 211.02 31.9386C210.748 32.1424 210.532 32.4142 210.371 32.754C210.217 33.0876 210.14 33.4984 210.14 33.9864V39.2591H207.314V28.8991H209.454L209.871 30.6412H210.01C210.214 30.2891 210.467 29.9679 210.77 29.6775C211.079 29.381 211.428 29.1463 211.817 28.9733C212.212 28.7941 212.639 28.7046 213.096 28.7046ZM224.777 34.0606C224.777 34.9254 224.659 35.6915 224.425 36.3587C224.196 37.0258 223.859 37.5911 223.415 38.0544C222.976 38.5116 222.445 38.8575 221.821 39.0923C221.203 39.327 220.505 39.4444 219.727 39.4444C218.998 39.4444 218.327 39.327 217.716 39.0923C217.11 38.8575 216.582 38.5116 216.131 38.0544C215.686 37.5911 215.34 37.0258 215.093 36.3587C214.852 35.6915 214.732 34.9254 214.732 34.0606C214.732 32.9115 214.936 31.9386 215.343 31.1416C215.751 30.3447 216.332 29.7393 217.086 29.3254C217.839 28.9115 218.738 28.7046 219.782 28.7046C220.752 28.7046 221.611 28.9115 222.358 29.3254C223.112 29.7393 223.702 30.3447 224.128 31.1416C224.561 31.9386 224.777 32.9115 224.777 34.0606ZM217.614 34.0606C217.614 34.7401 217.688 35.3115 217.836 35.7749C217.984 36.2382 218.216 36.5872 218.531 36.822C218.846 37.0567 219.257 37.1741 219.764 37.1741C220.264 37.1741 220.669 37.0567 220.977 36.822C221.293 36.5872 221.521 36.2382 221.663 35.7749C221.811 35.3115 221.886 34.7401 221.886 34.0606C221.886 33.3749 221.811 32.8065 221.663 32.3555C221.521 31.8984 221.293 31.5555 220.977 31.327C220.662 31.0984 220.252 30.9841 219.745 30.9841C218.998 30.9841 218.454 31.2405 218.114 31.7532C217.781 32.266 217.614 33.0351 217.614 34.0606Z" fill="white"/>
<defs>
<linearGradient id="paint0_linear_5_291" x1="203.949" y1="31.5801" x2="222.693" y2="41.0842" gradientUnits="userSpaceOnUse">
<stop stop-color="#80BC06"/>
<stop offset="1" stop-color="#68A718"/>
</linearGradient>
</defs>
</svg>
